<svg version="1.1" xmlns="http://www.w3.org/2000/svg" style="display: block;" viewBox="0 0 2000 2000" width="500" height="500" preserveAspectRatio="none">
<path transform="translate(0,0)" fill="rgb(197,237,10)" d="M 985.773 116.396 C 1038.6 109.32 1084.44 137.422 1127.7 162.687 L 1193.58 200.762 L 1409.85 325.45 L 1619.46 446.423 L 1672.81 477.245 C 1689.68 486.902 1714 500.185 1728.89 512.556 C 1764.66 541.975 1787.07 584.549 1791.09 630.682 C 1792.99 651.748 1792.6 675.148 1792.59 696.407 L 1792.48 782.508 L 1792.55 1063.32 L 1792.43 1269.63 L 1792.48 1331.6 C 1792.48 1347.7 1793.01 1364 1790.77 1380 C 1783.64 1430.91 1754.64 1476.61 1710.43 1503.15 C 1669.28 1527.86 1627.08 1550.67 1585.33 1574.16 L 1340.52 1710.89 L 1182.29 1799.61 C 1131.17 1827.92 1076.46 1862.33 1016.76 1867.25 C 950.542 1873.55 892.063 1840.59 836.318 1809.73 L 772.181 1774.22 L 590.864 1672.69 C 522.14 1634.63 453.615 1596.21 385.292 1557.44 L 323.197 1522.28 C 305.797 1512.44 285.729 1501.9 270.465 1489.49 C 233.025 1459.07 211.703 1413.1 207.658 1365.5 C 205.972 1345.66 206.118 1322.43 206.104 1302.31 L 206.193 1220.56 L 206.246 968.295 L 206.036 750.077 C 206.024 718.407 204.794 650.921 209.379 621.543 C 214.321 588.775 228.18 557.998 249.441 532.58 C 277.303 499.697 341.189 468.95 380.086 446.234 C 455.872 401.862 531.947 357.987 608.306 314.611 L 811.459 196.765 C 847.298 176.058 884.31 154.117 920.871 134.856 C 939.21 125.195 965.125 118.192 985.773 116.396 z M 913.84 1494.57 C 925.687 1513.8 934.738 1533.38 948.58 1551.96 C 969.061 1579.45 1007.09 1583.07 1035.42 1565.86 C 1047.54 1558.5 1054.85 1547.91 1062.14 1536.06 C 1079.5 1507.54 1096.23 1478.43 1113 1449.57 L 1205.33 1289.56 L 1416.65 925.949 L 1500.96 780.793 C 1513.39 759.586 1569.18 670.321 1572.81 653.166 C 1574.89 643.339 1573.66 631.039 1567.68 622.721 C 1561.49 614.108 1551.13 609.099 1540.79 607.743 C 1527.51 606.004 1513.39 606.7 1500 606.647 C 1477.56 606.558 1454.97 606.413 1432.55 607.424 C 1400.08 609.929 1378.71 616.482 1351.43 634.776 C 1322.73 654.029 1308.66 680.323 1291.56 709.513 L 1251.13 779.723 L 1090.03 1056.85 L 1050.42 1124.28 C 1039.83 1142.15 1025.55 1175.5 1001.8 1175.9 C 963.986 1176.53 951.566 1111.9 928.774 1088.91 C 905.582 1065.23 880.094 1071.41 864.035 1097.43 C 832.035 1162.19 765.964 1224.87 803.143 1302.39 C 818.412 1333.71 837.285 1361.91 854.165 1391.12 L 893.99 1460.76 C 899.832 1470.88 907.61 1485.16 913.84 1494.57 z M 622.767 1342.59 C 680.559 1313.8 698.98 1274.04 729.84 1220.68 L 777.865 1138.49 C 792.713 1112.84 828.112 1056.68 836.232 1032.26 C 849.37 991.961 845.76 948.069 826.213 910.455 C 809.268 877.085 781.471 833.257 762.201 800.053 L 720.887 728.505 C 690.389 675.801 670.118 634.312 607.606 613.988 C 598.498 611.027 589.12 608.969 579.61 607.843 C 563.086 605.93 538.481 606.408 521.285 606.526 C 501.517 606.662 479.109 606.315 459.607 607.251 C 427.172 612.426 417.741 643.238 433.655 670.317 C 456.2 708.68 478.585 747.282 501.163 785.645 L 545.493 861.842 C 563.796 892.657 587.622 928.433 600.361 961.177 C 615.305 999.588 582.562 1043.62 564.33 1074.93 C 548.79 1101.75 533.092 1128.47 517.237 1155.1 L 459.138 1254.5 C 450.687 1268.88 433.174 1294.53 428.742 1309.26 C 418.999 1341.67 445.622 1357.26 474.54 1355.79 C 522.533 1353.36 577.872 1363.35 622.767 1342.59 z"/>
</svg>